<?xml version="1.0" encoding="UTF-8"?>
<svg xmlns="http://www.w3.org/2000/svg" width="137" height="30" viewBox="0 0 137 30" fill="none">
  <path d="M25.4148 15.2688C25.4148 22.3001 19.764 27.9999 12.7933 27.9999C5.82271 27.9999 0.171875 22.3001 0.171875 15.2688C0.171875 8.23764 5.82271 2.53772 12.7933 2.53772C19.764 2.53772 25.4148 8.23764 25.4148 15.2688Z" fill="#86FFC9"></path>
  <path d="M21.9185 15.2689C21.9185 20.3469 17.8373 24.4635 12.803 24.4635C7.76866 24.4635 3.6875 20.3469 3.6875 15.2689C3.6875 10.1907 7.76866 6.0741 12.803 6.0741C17.8373 6.0741 21.9185 10.1907 21.9185 15.2689Z" fill="#13E989"></path>
  <path d="M40.5412 24.584C39.3043 24.584 38.1602 24.3579 37.1089 23.9056C36.0729 23.4533 35.1607 22.8217 34.3723 22.0109C33.5992 21.1999 32.9962 20.2486 32.5634 19.1569C32.1305 18.0653 31.9141 16.8722 31.9141 15.5779C31.9141 14.2835 32.1228 13.0904 32.5401 11.9988C32.9731 10.8915 33.5761 9.94023 34.3491 9.14489C35.1376 8.33394 36.0574 7.71014 37.1089 7.27347C38.1602 6.82122 39.3043 6.59509 40.5412 6.59509C41.7779 6.59509 42.8835 6.80562 43.8574 7.22669C44.847 7.64775 45.6819 8.20919 46.362 8.91096C47.0423 9.59714 47.5294 10.3535 47.8232 11.18L44.9938 12.5134C44.6692 11.6401 44.1202 10.9227 43.3472 10.3613C42.5742 9.78428 41.6388 9.49578 40.5412 9.49578C39.4589 9.49578 38.5003 9.75309 37.6654 10.2677C36.8461 10.7824 36.2044 11.4919 35.7405 12.3965C35.2922 13.301 35.068 14.3614 35.068 15.5779C35.068 16.7943 35.2922 17.8625 35.7405 18.7827C36.2044 19.6872 36.8461 20.3967 37.6654 20.9113C38.5003 21.426 39.4589 21.6833 40.5412 21.6833C41.6388 21.6833 42.5742 21.4026 43.3472 20.8412C44.1202 20.2642 44.6692 19.5389 44.9938 18.6657L47.8232 19.9991C47.5294 20.8255 47.0423 21.5898 46.362 22.2915C45.6819 22.9777 44.847 23.5314 43.8574 23.9525C42.8835 24.3734 41.7779 24.584 40.5412 24.584Z" fill="#131313"></path>
  <path d="M55.5604 24.584C54.3235 24.584 53.195 24.2955 52.1746 23.7184C51.1696 23.1415 50.3656 22.3539 49.7627 21.3558C49.1751 20.3578 48.8813 19.2193 48.8813 17.9405C48.8813 16.6616 49.1751 15.5233 49.7627 14.5251C50.3656 13.5271 51.1696 12.7396 52.1746 12.1625C53.1795 11.5855 54.3082 11.297 55.5604 11.297C56.7973 11.297 57.9182 11.5855 58.9231 12.1625C59.9282 12.7396 60.7243 13.5271 61.3119 14.5251C61.9148 15.5077 62.2164 16.6462 62.2164 17.9405C62.2164 19.2193 61.9148 20.3578 61.3119 21.3558C60.7088 22.3539 59.9049 23.1415 58.9 23.7184C57.8951 24.2955 56.7819 24.584 55.5604 24.584ZM55.5604 21.7769C56.2407 21.7769 56.836 21.6131 57.3461 21.2856C57.8718 20.9582 58.2816 20.5059 58.5752 19.9289C58.8845 19.3363 59.0391 18.6734 59.0391 17.9405C59.0391 17.1919 58.8845 16.5369 58.5752 15.9756C58.2816 15.3985 57.8718 14.9462 57.3461 14.6188C56.836 14.2756 56.2407 14.104 55.5604 14.104C54.8647 14.104 54.254 14.2756 53.7283 14.6188C53.2026 14.9462 52.7852 15.3985 52.4761 15.9756C52.1823 16.5369 52.0354 17.1919 52.0354 17.9405C52.0354 18.6734 52.1823 19.3363 52.4761 19.9289C52.7852 20.5059 53.2026 20.9582 53.7283 21.2856C54.254 21.6131 54.8647 21.7769 55.5604 21.7769Z" fill="#131313"></path>
  <path d="M64.0103 24.3032V11.5777H66.8628V14.4083L66.6309 13.9872C66.9245 13.0359 67.3808 12.3731 67.9991 11.9988C68.633 11.6245 69.3905 11.4374 70.2719 11.4374H71.0139V14.1509H69.924C69.0581 14.1509 68.3625 14.4239 67.8368 14.9697C67.3112 15.4999 67.0483 16.2485 67.0483 17.2154V24.3032H64.0103Z" fill="#131313"></path>
  <path d="M76.0003 24.584C75.1191 24.584 74.3538 24.4359 73.7044 24.1395C73.0551 23.8432 72.5526 23.4222 72.197 22.8764C71.8415 22.315 71.6636 21.6677 71.6636 20.9348C71.6636 20.233 71.8182 19.6091 72.1275 19.0634C72.4367 18.502 72.916 18.034 73.5653 17.6598C74.2146 17.2855 75.0341 17.0204 76.0236 16.8645L80.1517 16.186V18.5253L76.6034 19.1335C76.0003 19.2427 75.5521 19.4377 75.2583 19.7184C74.9645 19.9991 74.8177 20.3655 74.8177 20.8178C74.8177 21.2545 74.98 21.6054 75.3046 21.8705C75.6448 22.12 76.0622 22.2448 76.557 22.2448C77.1908 22.2448 77.7474 22.1121 78.2267 21.847C78.7215 21.5663 79.1002 21.1843 79.363 20.7008C79.6413 20.2174 79.7805 19.6872 79.7805 19.1101V15.8352C79.7805 15.2894 79.5641 14.8371 79.1312 14.4784C78.7137 14.104 78.1572 13.917 77.4615 13.917C76.8121 13.917 76.2322 14.0963 75.722 14.455C75.2273 14.7981 74.864 15.2582 74.6321 15.8352L72.1506 14.6188C72.398 13.9482 72.7845 13.3712 73.3101 12.8877C73.8513 12.3887 74.4853 11.9988 75.2119 11.7181C75.9386 11.4374 76.7271 11.297 77.5773 11.297C78.6133 11.297 79.5255 11.4919 80.314 11.8818C81.1024 12.2561 81.7132 12.7863 82.1461 13.4725C82.5944 14.1431 82.8186 14.9306 82.8186 15.8352V24.3032H79.9429V22.1278L80.5923 22.0811C80.2675 22.6268 79.881 23.0869 79.4326 23.4612C78.9843 23.8198 78.4741 24.1006 77.9021 24.3032C77.33 24.4904 76.6961 24.584 76.0003 24.584Z" fill="#131313"></path>
  <path d="M85.1167 24.3032V6.59509H88.1547V24.3032H85.1167Z" fill="#131313"></path>
  <path d="M96.6181 24.584C95.3811 24.584 94.2526 24.2955 93.2322 23.7184C92.2272 23.1415 91.4232 22.3539 90.8203 21.3558C90.2327 20.3578 89.939 19.2193 89.939 17.9405C89.939 16.6616 90.2327 15.5233 90.8203 14.5251C91.4232 13.5271 92.2272 12.7396 93.2322 12.1625C94.2371 11.5855 95.3658 11.297 96.6181 11.297C97.855 11.297 98.9759 11.5855 99.9807 12.1625C100.986 12.7396 101.782 13.5271 102.369 14.5251C102.972 15.5077 103.274 16.6462 103.274 17.9405C103.274 19.2193 102.972 20.3578 102.369 21.3558C101.766 22.3539 100.962 23.1415 99.9576 23.7184C98.9527 24.2955 97.8395 24.584 96.6181 24.584ZM96.6181 21.7769C97.2983 21.7769 97.8936 21.6131 98.4038 21.2856C98.9294 20.9582 99.3392 20.5059 99.6329 19.9289C99.9421 19.3363 100.097 18.6734 100.097 17.9405C100.097 17.1919 99.9421 16.5369 99.6329 15.9756C99.3392 15.3985 98.9294 14.9462 98.4038 14.6188C97.8936 14.2756 97.2983 14.104 96.6181 14.104C95.9223 14.104 95.3116 14.2756 94.7859 14.6188C94.2603 14.9462 93.8428 15.3985 93.5337 15.9756C93.2399 16.5369 93.0931 17.1919 93.0931 17.9405C93.0931 18.6734 93.2399 19.3363 93.5337 19.9289C93.8428 20.5059 94.2603 20.9582 94.7859 21.2856C95.3116 21.6131 95.9223 21.7769 96.6181 21.7769Z" fill="#131313"></path>
  <path d="M111.19 29.4497C110.247 29.4497 109.374 29.2937 108.57 28.9819C107.766 28.6699 107.07 28.2332 106.482 27.6718C105.91 27.1259 105.493 26.4788 105.23 25.7302L108.059 24.6541C108.245 25.2468 108.608 25.7225 109.149 26.0811C109.706 26.4554 110.386 26.6426 111.19 26.6426C111.809 26.6426 112.35 26.5255 112.814 26.2917C113.293 26.0578 113.664 25.7146 113.927 25.2624C114.19 24.8257 114.321 24.2955 114.321 23.6717V20.771L114.901 21.4728C114.468 22.2369 113.888 22.814 113.161 23.2038C112.435 23.5937 111.608 23.7886 110.68 23.7886C109.505 23.7886 108.454 23.5158 107.526 22.9699C106.598 22.4241 105.872 21.6756 105.346 20.7243C104.82 19.773 104.558 18.7046 104.558 17.5194C104.558 16.3186 104.82 15.2503 105.346 14.3146C105.872 13.3789 106.591 12.646 107.503 12.1157C108.415 11.5699 109.451 11.297 110.611 11.297C111.554 11.297 112.381 11.4997 113.092 11.9052C113.819 12.2951 114.421 12.8643 114.901 13.6129L114.483 14.3848V11.5777H117.359V23.6717C117.359 24.7789 117.089 25.7693 116.547 26.6426C116.022 27.5159 115.295 28.202 114.367 28.7012C113.455 29.2002 112.396 29.4497 111.19 29.4497ZM111.051 20.9582C111.7 20.9582 112.265 20.8178 112.744 20.5371C113.239 20.2407 113.625 19.8353 113.904 19.3207C114.182 18.806 114.321 18.2134 114.321 17.5428C114.321 16.8878 114.174 16.303 113.88 15.7884C113.602 15.2582 113.216 14.8448 112.721 14.5486C112.242 14.2523 111.685 14.104 111.051 14.104C110.417 14.104 109.845 14.2523 109.335 14.5486C108.825 14.8448 108.423 15.2582 108.129 15.7884C107.851 16.303 107.712 16.8878 107.712 17.5428C107.712 18.1978 107.851 18.7827 108.129 19.2973C108.423 19.8119 108.817 20.2174 109.312 20.5137C109.822 20.8099 110.402 20.9582 111.051 20.9582Z" fill="#131313"></path>
  <path d="M119.686 24.3033V11.5778H122.724V24.3033H119.686ZM119.686 10.1508V6.87585H122.724V10.1508H119.686Z" fill="#131313"></path>
  <path d="M123.883 24.3033L128.289 17.9172L123.859 11.5778H127.431L130.886 16.7241H129.286L132.741 11.5778H136.289L131.883 17.9172L136.266 24.3033H132.718L129.309 19.1803H130.863L127.454 24.3033H123.883Z" fill="#131313"></path>
</svg>
